Coordinates
version=1
nRows=14
nColumns=42
inDegrees=yes

Units are S.I. units (second, meters, Newtons, ...)
If the header above contains a line with 'inDegrees', this indicates whether rotational values are in degrees (yes) or radians (no).

endheader
time	pelvis_tilt	pelvis_list	pelvis_rotation	pelvis_tx	pelvis_ty	pelvis_tz	hip_flexion_r	hip_adduction_r	hip_rotation_r	knee_angle_r	knee_adduction_r	knee_angle_r_beta	ankle_angle_r	subtalar_angle_r	mtp_angle_r	hip_flexion_l	hip_adduction_l	hip_rotation_l	knee_angle_l	knee_adduction_l	knee_angle_l_beta	ankle_angle_l	subtalar_angle_l	mtp_angle_l	lumbar_extension	lumbar_bending	lumbar_rotation	arm_flex_r	arm_add_r	arm_rot_r	elbow_flex_r	pro_sup_r	wrist_flex_r	wrist_dev_r	arm_flex_l	arm_add_l	arm_rot_l	elbow_flex_l	pro_sup_l	wrist_flex_l	wrist_dev_l
      0.00000000	      3.14427356	     -4.13665386	     -0.17036299	     -1.06839214	      0.94388446	     -0.25808532	     23.12004259	      4.76850641	    -13.00526855	     17.25333947	     -3.54706773	      0.30112758	      0.44600138	      1.80303865	     -9.31264774	    -19.85860555	     -3.40366726	     -0.54672656	     21.51315661	      0.76004716	      0.37547542	      8.89632242	     -4.57424943	     -9.31264774	    -14.55693415	      6.42092389	      0.02702938	    -10.90834879	    -10.18660187	    -11.01968447	     24.53675652	     90.00000001	      0.00000000	      0.00000000	     12.61944259	    -10.91766655	     16.12892594	     45.67582019	     90.00000001	      0.00000000	      0.00000000
      0.01000000	      3.23739312	     -4.56847622	     -0.25239449	     -1.05246992	      0.94442324	     -0.25683659	     22.97883478	      5.49866990	    -11.85640139	     18.98460692	     -3.69466585	      0.33134390	     -0.27473563	      0.33963805	     -9.16554725	    -19.18493277	     -4.03783888	     -0.91444930	     24.61231611	      0.89068740	      0.42956595	      6.32239590	     -5.69292322	     -9.16554725	    -14.60281586	      7.08805920	      0.29802622	    -10.78209421	    -10.20784265	    -11.43259251	     24.27045865	     90.00000001	      0.00000000	      0.00000000	     12.43186399	    -10.32348043	     15.15515407	     45.24361086	     90.00000001	      0.00000000	      0.00000000
      0.02000000	      3.39597739	     -5.13284094	     -0.24183940	     -1.03657707	      0.94544444	     -0.25544882	     22.59980306	      6.37598039	    -10.84774178	     20.43262354	     -3.82110585	      0.35661656	     -0.80963841	     -0.93326114	     -9.10497529	    -18.32709950	     -4.93344264	     -1.37756450	     27.98911255	      1.07722246	      0.48850217	      3.44589068	     -6.87033338	     -9.10497529	    -14.72706294	      7.87980468	      0.53074681	    -10.63562528	    -10.21745144	    -11.81215621	     24.09807065	     90.00000001	      0.00000000	      0.00000000	     12.15642380	     -9.72697855	     14.02075445	     44.87157764	     90.00000001	      0.00000000	      0.00000000
      0.03000000	      3.51762360	     -5.61688280	     -0.30925321	     -1.02112985	      0.94687950	     -0.25400206	     21.99260664	      7.22044134	     -8.91491228	     21.46675099	     -3.53871125	      0.37466548	     -1.62157483	     -3.83142343	     -8.96999512	    -17.19337576	     -5.71260682	     -1.98927997	     31.50651383	      1.10587032	      0.54989240	      0.26035024	     -8.11435545	     -8.96999512	    -14.87653376	      8.55336144	      0.87018077	    -10.43728271	    -10.18711911	    -12.30677316	     23.98057426	     90.00000001	      0.00000000	      0.00000000	     11.88124811	     -9.15636325	     12.95894041	     44.54379194	     90.00000001	      0.00000000	      0.00000000
      0.04000000	      3.68358000	     -6.16919367	     -0.28399620	     -1.00562179	      0.94855458	     -0.25253509	     21.35565065	      8.07594552	     -8.14367235	     22.45910158	     -3.57724002	      0.39198527	     -1.68874772	     -4.75167419	     -8.92335804	    -15.92053310	     -6.66315583	     -2.67274126	     35.10046482	      1.09554449	      0.61261868	     -2.82704388	     -9.41231299	     -8.92335804	    -15.04483179	      9.28181023	      1.17477892	    -10.31202340	    -10.17926052	    -12.55013294	     24.01739265	     90.00000001	      0.00000000	      0.00000000	     11.53253029	     -8.59113088	     11.79726143	     44.27594075	     90.00000001	      0.00000000	      0.00000000
      0.05000000	      3.75110993	     -6.55546552	     -0.30401376	     -0.99072724	      0.95047407	     -0.25112372	     20.59535947	      8.75481210	     -6.74895328	     23.05864240	     -3.27442549	      0.40244923	     -1.95530473	     -6.97377303	     -8.80554087	    -14.33192061	     -7.40233438	     -3.32666042	     38.68588251	      0.94001098	      0.67519602	     -5.85064394	    -10.92931310	     -8.80554087	    -15.18178510	      9.80564853	      1.49643925	    -10.08485764	    -10.12074261	    -12.85321726	     24.09212565	     90.00000001	      0.00000000	      0.00000000	     11.19396472	     -8.08350313	     10.72203686	     44.04962207	     90.00000001	      0.00000000	      0.00000000
      0.06000000	      4.05087607	     -6.94996156	     -0.21395572	     -0.97565660	      0.95282646	     -0.24985212	     19.51464678	      9.37511983	     -6.42298073	     23.47328918	     -3.30991211	      0.40968618	     -1.38982921	     -7.21458644	     -8.78203944	    -12.89551669	     -8.16909384	     -4.24335041	     42.06217592	      0.47836479	      0.73412346	     -8.44183878	    -12.05311181	     -8.78203944	    -15.53066330	     10.33107433	      1.79610699	     -9.93298145	    -10.08325600	    -12.96747772	     24.35330449	     90.00000001	      0.00000000	      0.00000000	     10.80737618	     -7.63764993	      9.82132796	     43.93731106	     90.00000001	      0.00000000	      0.00000000
      0.07000000	      3.88905881	     -7.24322044	     -0.18935757	     -0.96141053	      0.95478918	     -0.24847697	     18.88556795	      9.89414139	     -6.02572645	     23.71711239	     -3.28153442	      0.41394170	     -1.09363764	     -7.92610198	     -8.72083616	    -10.74603349	     -8.85660508	     -4.89501530	     45.45408268	      0.11516736	      0.79332340	    -10.45157069	    -13.78353733	     -8.72083616	    -15.44131132	     10.70848078	      2.08339840	     -9.69815139	    -10.01771329	    -13.05011216	     24.56460284	     90.00000001	      0.00000000	      0.00000000	     10.41181873	     -7.16278431	      8.64087038	     43.77508560	     90.00000001	      0.00000000	      0.00000000
      0.08000000	      4.20555188	     -7.37924263	     -0.06003781	     -0.94694900	      0.95755016	     -0.24747489	     17.51379763	     10.14961923	     -5.93511733	     23.58965779	     -3.24019502	      0.41171720	     -0.21872344	     -7.83628958	     -8.69877799	     -9.12050915	     -9.27858308	     -5.98632780	     48.33230253	     -0.79190176	      0.84355781	    -11.76241711	    -14.72514180	     -8.69877799	    -15.84359858	     10.91625771	      2.34903570	     -9.46688459	     -9.95366158	    -13.06663397	     24.93430500	     90.00000001	      0.00000000	      0.00000000	     10.01546672	     -6.87732252	      8.02860080	     43.77069058	     90.00000001	      0.00000000	      0.00000000
      0.09000000	      3.99661405	     -7.54375431	     -0.04626102	     -0.93318349	      0.95973070	     -0.24616977	     16.72242183	     10.52503749	     -5.92162782	     23.37526033	     -3.37336299	      0.40797526	      0.27435680	     -7.80724026	     -8.64870317	     -6.75810054	     -9.79749473	     -6.93922983	     51.17714907	     -1.55413150	      0.89320975	    -12.61455839	    -16.13330682	     -8.64870317	    -15.72359615	     11.10505501	      2.65899490	     -9.21824533	     -9.88129389	    -12.94444235	     25.28285486	     90.00000001	      0.00000000	      0.00000000	      9.59127508	     -6.50147784	      7.00031466	     43.69481962	     90.00000001	      0.00000000	      0.00000000
      0.10000000	      4.23486467	     -7.45155327	      0.10237699	     -0.91924567	      0.96269388	     -0.24534979	     15.23389968	     10.49087214	     -5.96536379	     22.83177902	     -3.32443018	      0.39848972	      1.13830008	     -7.46038908	     -8.62954691	     -4.95197394	     -9.91550363	     -8.07256426	     53.36837664	     -2.65968502	      0.93145389	    -12.57022428	    -16.87772440	     -8.62954691	    -16.05873058	     11.03598375	      2.86700736	     -8.90541727	     -9.79157355	    -12.86680919	     25.70621761	     90.00000001	      0.00000000	      0.00000000	      9.17640695	     -6.34798881	      6.59017705	     43.72737135	     90.00000001	      0.00000000	      0.00000000
      0.11000000	      4.25552356	     -7.37330958	      0.17411858	     -0.90559567	      0.96539312	     -0.24432142	     13.94858585	     10.52279701	     -6.04664826	     22.16897401	     -3.37575354	      0.38692159	      1.89389833	     -6.93262081	     -8.60739506	     -2.85551606	    -10.07284239	     -9.33793781	     55.28928649	     -3.81059374	      0.96498009	    -12.18067679	    -17.44650039	     -8.60739506	    -16.16855715	     10.93500458	      3.15289779	     -8.61267879	     -9.71655332	    -12.67633776	     26.14899437	     90.00000001	      0.00000000	      0.00000000	      8.73263953	     -6.19246336	      6.03888054	     43.77652036	     90.00000001	      0.00000000	      0.00000000
      0.12000000	      4.46214571	     -7.00940989	      0.21325283	     -0.89234346	      0.96846410	     -0.24322535	     12.50895691	     10.25281750	     -6.22864119	     21.56979994	     -3.46991396	      0.37646403	      2.37382319	     -6.59124340	     -8.59612181	     -1.05943778	     -9.91011409	    -10.16386811	     56.70232418	     -4.46803645	      0.98964225	    -11.25577723	    -17.81294604	     -8.59612181	    -16.54858312	     10.46188505	      3.49380131	     -8.19507616	     -9.53548683	    -12.52242698	     26.54302774	     90.00000001	      0.00000000	      0.00000000	      8.43575996	     -6.18611240	      5.82657311	     43.78475998	     90.00000001	      0.00000000	      0.00000000
      0.13000000	      4.14384852	     -6.93099670	      0.21020102	     -0.87875777	      0.97067037	     -0.24238377	     11.45996632	     10.26099328	     -6.04535061	     20.68477337	     -3.42251983	      0.36101740	      3.31981743	     -5.69959741	     -8.56424296	      1.40564946	     -9.99441618	    -11.87577945	     57.89235707	     -5.96753518	      1.01041224	     -9.98405804	    -17.82593578	     -8.56424296	    -16.23329013	     10.37752684	      3.66935338	     -7.92774648	     -9.59007688	    -11.91784414	     27.10428839	     90.00000001	      0.00000000	      0.00000000	      7.74051101	     -6.07804815	      5.18676804	     43.90186039	     90.00000001	      0.00000000	      0.00000000
